<svg width="21" height="20" viewBox="0 0 21 20" fill="none" xmlns="http://www.w3.org/2000/svg">
<path fill-rule="evenodd" clip-rule="evenodd" d="M8.78616 2.7085H12.2135C13.745 2.70848 14.958 2.70847 15.9074 2.83611C16.8844 2.96747 17.6752 3.24423 18.2988 3.86787C18.9224 4.4915 19.1992 5.28229 19.3306 6.25931C19.4582 7.20866 19.4582 8.42169 19.4582 9.95315V10.0472C19.4582 11.5786 19.4582 12.7917 19.3306 13.741C19.1992 14.718 18.9224 15.5088 18.2988 16.1325C17.6752 16.7561 16.8844 17.0329 15.9074 17.1642C14.958 17.2919 13.745 17.2918 12.2135 17.2918H8.78616C7.25469 17.2918 6.04166 17.2919 5.09232 17.1642C4.1153 17.0329 3.32451 16.7561 2.70087 16.1325C2.07724 15.5088 1.80047 14.718 1.66912 13.741C1.54148 12.7917 1.54149 11.5786 1.5415 10.0472V9.95315C1.54149 8.42168 1.54148 7.20866 1.66912 6.25931C1.80047 5.28229 2.07724 4.4915 2.70087 3.86787C3.32451 3.24423 4.1153 2.96747 5.09232 2.83611C6.04166 2.70847 7.25469 2.70848 8.78616 2.7085ZM5.25888 4.07496C4.42047 4.18768 3.93743 4.39907 3.58476 4.75175C3.23208 5.10442 3.02069 5.58746 2.90797 6.42587C2.79283 7.28226 2.7915 8.41115 2.7915 10.0002C2.7915 11.5892 2.79283 12.7181 2.90797 13.5745C3.02069 14.4129 3.23208 14.8959 3.58476 15.2486C3.93743 15.6013 4.42047 15.8126 5.25888 15.9254C6.11526 16.0405 7.24415 16.0418 8.83317 16.0418H12.1665C13.7555 16.0418 14.8844 16.0405 15.7408 15.9254C16.5792 15.8126 17.0622 15.6013 17.4149 15.2486C17.7676 14.8959 17.979 14.4129 18.0917 13.5745C18.2068 12.7181 18.2082 11.5892 18.2082 10.0002C18.2082 8.41115 18.2068 7.28226 18.0917 6.42587C17.979 5.58746 17.7676 5.10442 17.4149 4.75175C17.0622 4.39907 16.5792 4.18768 15.7408 4.07496C14.8844 3.95982 13.7555 3.9585 12.1665 3.9585H8.83317C7.24415 3.9585 6.11526 3.95982 5.25888 4.07496ZM5.0197 6.26671C5.24068 6.00154 5.63478 5.96571 5.89995 6.18669L7.69903 7.68592C8.4765 8.33381 9.01628 8.78218 9.47199 9.07527C9.91312 9.35899 10.2123 9.45423 10.4998 9.45423C10.7874 9.45423 11.0866 9.35899 11.5277 9.07527C11.9834 8.78218 12.5232 8.33381 13.3006 7.68592L15.0997 6.18669C15.3649 5.96571 15.759 6.00154 15.98 6.26671C16.201 6.53189 16.1651 6.92599 15.9 7.14697L14.0695 8.67231C13.3309 9.28785 12.7322 9.78676 12.2039 10.1266C11.6534 10.4806 11.1174 10.7042 10.4998 10.7042C9.88227 10.7042 9.34623 10.4806 8.79582 10.1266C8.26744 9.78677 7.66877 9.28786 6.93014 8.67232L5.09972 7.14697C4.83455 6.92599 4.79872 6.53189 5.0197 6.26671Z" fill="#121212" fill-opacity="0.6"/>
</svg>
