<svg width="20" height="20" viewBox="0 0 20 20" fill="none" xmlns="http://www.w3.org/2000/svg">
<path fill-rule="evenodd" clip-rule="evenodd" d="M8.28616 2.70801H11.7135C13.245 2.70799 14.458 2.70798 15.4074 2.83562C16.3844 2.96698 17.1752 3.24374 17.7988 3.86738C18.4224 4.49101 18.6992 5.2818 18.8306 6.25882C18.9582 7.20817 18.9582 8.4212 18.9582 9.95267V10.0467C18.9582 11.5782 18.9582 12.7912 18.8306 13.7405C18.6992 14.7175 18.4224 15.5083 17.7988 16.132C17.1752 16.7556 16.3844 17.0324 15.4074 17.1637C14.458 17.2914 13.245 17.2914 11.7135 17.2913H8.28616C6.75469 17.2914 5.54166 17.2914 4.59232 17.1637C3.6153 17.0324 2.82451 16.7556 2.20087 16.132C1.57724 15.5083 1.30047 14.7175 1.16912 13.7405C1.04148 12.7912 1.04149 11.5782 1.0415 10.0467V9.95266C1.04149 8.42119 1.04148 7.20817 1.16912 6.25882C1.30047 5.2818 1.57724 4.49101 2.20087 3.86738C2.82451 3.24374 3.6153 2.96698 4.59232 2.83562C5.54166 2.70798 6.75469 2.70799 8.28616 2.70801ZM4.75888 4.07447C3.92047 4.18719 3.43743 4.39859 3.08476 4.75126C2.73208 5.10394 2.52069 5.58697 2.40797 6.42538C2.29283 7.28177 2.2915 8.41066 2.2915 9.99968C2.2915 11.5887 2.29283 12.7176 2.40797 13.574C2.52069 14.4124 2.73208 14.8954 3.08476 15.2481C3.43743 15.6008 3.92047 15.8122 4.75888 15.9249C5.61526 16.04 6.74415 16.0413 8.33317 16.0413H11.6665C13.2555 16.0413 14.3844 16.04 15.2408 15.9249C16.0792 15.8122 16.5622 15.6008 16.9149 15.2481C17.2676 14.8954 17.479 14.4124 17.5917 13.574C17.7068 12.7176 17.7082 11.5887 17.7082 9.99968C17.7082 8.41066 17.7068 7.28177 17.5917 6.42538C17.479 5.58697 17.2676 5.10394 16.9149 4.75126C16.5622 4.39859 16.0792 4.18719 15.2408 4.07447C14.3844 3.95934 13.2555 3.95801 11.6665 3.95801H8.33317C6.74415 3.95801 5.61526 3.95934 4.75888 4.07447ZM4.5197 6.26623C4.74068 6.00105 5.13478 5.96523 5.39995 6.1862L7.19903 7.68544C7.9765 8.33332 8.51628 8.78169 8.97199 9.07478C9.41312 9.3585 9.71228 9.45374 9.99984 9.45374C10.2874 9.45374 10.5866 9.3585 11.0277 9.07478C11.4834 8.78169 12.0232 8.33332 12.8006 7.68544L14.5997 6.1862C14.8649 5.96523 15.259 6.00105 15.48 6.26623C15.701 6.5314 15.6651 6.9255 15.4 7.14648L13.5695 8.67182C12.8309 9.28737 12.2322 9.78628 11.7039 10.1261C11.1534 10.4801 10.6174 10.7037 9.99984 10.7037C9.38227 10.7037 8.84623 10.4801 8.29582 10.1261C7.76744 9.78628 7.16877 9.28737 6.43014 8.67183L4.59972 7.14648C4.33455 6.9255 4.29872 6.5314 4.5197 6.26623Z" fill="#121212" fill-opacity="0.6"/>
</svg>
