<svg width="22" height="22" viewBox="0 0 22 22" fill="none" xmlns="http://www.w3.org/2000/svg">
<path d="M7.3335 2.8418V6.4168C7.3335 7.38926 7.7198 8.32189 8.40744 9.00952C9.09507 9.69716 10.0277 10.0835 11.0002 10.0835C11.9726 10.0835 12.9053 9.69716 13.5929 9.00952C14.2805 8.32189 14.6668 7.38926 14.6668 6.4168V2.8418" stroke="black" stroke-width="2" stroke-linecap="round" stroke-linejoin="round"/>
<path d="M8.25016 13.7502L7.3335 12.8335" stroke="black" stroke-width="2" stroke-linecap="round" stroke-linejoin="round"/>
<path d="M13.75 13.7502L14.6667 12.8335" stroke="black" stroke-width="2" stroke-linecap="round" stroke-linejoin="round"/>
<path d="M8.24984 17.4168C5.68317 17.4168 3.6665 15.4002 3.6665 12.8335V9.16683C3.6665 7.22191 4.43912 5.35665 5.81439 3.98138C7.18965 2.60611 9.05492 1.8335 10.9998 1.8335C12.9448 1.8335 14.81 2.60611 16.1853 3.98138C17.5606 5.35665 18.3332 7.22191 18.3332 9.16683V12.8335C18.3332 15.4002 16.3165 17.4168 13.7498 17.4168H8.24984Z" stroke="black" stroke-width="2" stroke-linecap="round" stroke-linejoin="round"/>
<path d="M7.33333 17.4165L5.5 20.1665" stroke="black" stroke-width="2" stroke-linecap="round" stroke-linejoin="round"/>
<path d="M14.6665 17.4165L16.4998 20.1665" stroke="black" stroke-width="2" stroke-linecap="round" stroke-linejoin="round"/>
</svg>
