<svg width="20" height="20" viewBox="0 0 20 20" fill="none" xmlns="http://www.w3.org/2000/svg">
<path d="M16.6668 7.50016V5.00016C16.6668 4.55814 16.4912 4.13421 16.1787 3.82165C15.8661 3.50909 15.4422 3.3335 15.0002 3.3335H5.00016C4.55814 3.3335 4.13421 3.50909 3.82165 3.82165C3.50909 4.13421 3.3335 4.55814 3.3335 5.00016V7.50016" stroke="#122B49" stroke-width="2" stroke-linecap="round" stroke-linejoin="round"/>
<path d="M1.6665 9.16667V13.3333C1.6665 13.7754 1.8421 14.1993 2.15466 14.5118C2.46722 14.8244 2.89114 15 3.33317 15H16.6665C17.1085 15 17.5325 14.8244 17.845 14.5118C18.1576 14.1993 18.3332 13.7754 18.3332 13.3333V9.16667C18.3332 8.72464 18.1576 8.30072 17.845 7.98816C17.5325 7.6756 17.1085 7.5 16.6665 7.5C16.2245 7.5 15.8006 7.6756 15.488 7.98816C15.1754 8.30072 14.9998 8.72464 14.9998 9.16667V10.8333H4.99984V9.16667C4.99984 8.72464 4.82424 8.30072 4.51168 7.98816C4.19912 7.6756 3.7752 7.5 3.33317 7.5C2.89114 7.5 2.46722 7.6756 2.15466 7.98816C1.8421 8.30072 1.6665 8.72464 1.6665 9.16667Z" stroke="#122B49" stroke-width="2" stroke-linecap="round" stroke-linejoin="round"/>
<path d="M3.3335 15V16.6667" stroke="#122B49" stroke-width="2" stroke-linecap="round" stroke-linejoin="round"/>
<path d="M16.6665 15V16.6667" stroke="#122B49" stroke-width="2" stroke-linecap="round" stroke-linejoin="round"/>
<path d="M10 3.3335V10.8335" stroke="#122B49" stroke-width="2" stroke-linecap="round" stroke-linejoin="round"/>
</svg>
