<svg width="35" height="34" viewBox="0 0 35 34" fill="none" xmlns="http://www.w3.org/2000/svg">
<path d="M3.33301 8.50016C4.18301 9.2085 5.03301 9.91683 6.87467 9.91683C10.4163 9.91683 10.4163 7.0835 13.958 7.0835C17.6413 7.0835 17.358 9.91683 21.0413 9.91683C24.583 9.91683 24.583 7.0835 28.1247 7.0835C29.9663 7.0835 30.8163 7.79183 31.6663 8.50016" stroke="#7A7A7A" stroke-width="2" stroke-linecap="round" stroke-linejoin="round"/>
<path d="M3.33301 17.0002C4.18301 17.7085 5.03301 18.4168 6.87467 18.4168C10.4163 18.4168 10.4163 15.5835 13.958 15.5835C17.6413 15.5835 17.358 18.4168 21.0413 18.4168C24.583 18.4168 24.583 15.5835 28.1247 15.5835C29.9663 15.5835 30.8163 16.2918 31.6663 17.0002" stroke="#7A7A7A" stroke-width="2" stroke-linecap="round" stroke-linejoin="round"/>
<path d="M3.33301 25.5002C4.18301 26.2085 5.03301 26.9168 6.87467 26.9168C10.4163 26.9168 10.4163 24.0835 13.958 24.0835C17.6413 24.0835 17.358 26.9168 21.0413 26.9168C24.583 26.9168 24.583 24.0835 28.1247 24.0835C29.9663 24.0835 30.8163 24.7918 31.6663 25.5002" stroke="#7A7A7A" stroke-width="2" stroke-linecap="round" stroke-linejoin="round"/>
</svg>
