<svg width="35" height="34" viewBox="0 0 35 34" fill="none" xmlns="http://www.w3.org/2000/svg">
<path d="M3.66602 9.91683L9.91352 3.66933C10.1771 3.40418 10.4906 3.19381 10.8358 3.05036C11.1811 2.9069 11.5513 2.8332 11.9252 2.8335H23.7402C24.1141 2.8332 24.4843 2.9069 24.8296 3.05036C25.1748 3.19381 25.4883 3.40418 25.7519 3.66933L31.9994 9.91683" stroke="#7A7A7A" stroke-width="2" stroke-linecap="round" stroke-linejoin="round"/>
<path d="M6.5 17V28.3333C6.5 29.0848 6.79851 29.8054 7.32986 30.3368C7.86122 30.8682 8.58189 31.1667 9.33333 31.1667H26.3333C27.0848 31.1667 27.8054 30.8682 28.3368 30.3368C28.8682 29.8054 29.1667 29.0848 29.1667 28.3333V17" stroke="#7A7A7A" stroke-width="2" stroke-linecap="round" stroke-linejoin="round"/>
<path d="M22.083 31.1665V25.4998C22.083 24.7484 21.7845 24.0277 21.2531 23.4964C20.7218 22.965 20.0011 22.6665 19.2497 22.6665H16.4163C15.6649 22.6665 14.9442 22.965 14.4129 23.4964C13.8815 24.0277 13.583 24.7484 13.583 25.4998V31.1665" stroke="#7A7A7A" stroke-width="2" stroke-linecap="round" stroke-linejoin="round"/>
<path d="M3.66602 9.9165H31.9994" stroke="#7A7A7A" stroke-width="2" stroke-linecap="round" stroke-linejoin="round"/>
<path d="M31.9994 9.9165V14.1665C31.9994 14.918 31.7008 15.6386 31.1695 16.17C30.6381 16.7013 29.9175 16.9998 29.166 16.9998C28.3383 16.9543 27.5478 16.6411 26.9135 16.1073C26.7445 15.9852 26.5412 15.9194 26.3327 15.9194C26.1241 15.9194 25.9209 15.9852 25.7519 16.1073C25.1176 16.6411 24.3271 16.9543 23.4994 16.9998C22.6716 16.9543 21.8811 16.6411 21.2468 16.1073C21.0778 15.9852 20.8746 15.9194 20.666 15.9194C20.4575 15.9194 20.2542 15.9852 20.0852 16.1073C19.4509 16.6411 18.6604 16.9543 17.8327 16.9998C17.005 16.9543 16.2145 16.6411 15.5802 16.1073C15.4111 15.9852 15.2079 15.9194 14.9993 15.9194C14.7908 15.9194 14.5876 15.9852 14.4185 16.1073C13.7842 16.6411 12.9937 16.9543 12.166 16.9998C11.3383 16.9543 10.5478 16.6411 9.91352 16.1073C9.74448 15.9852 9.54124 15.9194 9.33268 15.9194C9.12413 15.9194 8.92089 15.9852 8.75185 16.1073C8.11757 16.6411 7.32706 16.9543 6.49935 16.9998C5.7479 16.9998 5.02723 16.7013 4.49588 16.17C3.96453 15.6386 3.66602 14.918 3.66602 14.1665V9.9165" stroke="#7A7A7A" stroke-width="2" stroke-linecap="round" stroke-linejoin="round"/>
</svg>
