<svg width="33" height="36" viewBox="0 0 33 36" fill="none" xmlns="http://www.w3.org/2000/svg">
<path d="M29.8337 12.5252V30.0002C29.8337 30.7959 29.5527 31.5589 29.0526 32.1215C28.5525 32.6841 27.8742 33.0002 27.167 33.0002H5.83366C5.12641 33.0002 4.44814 32.6841 3.94804 32.1215C3.44794 31.5589 3.16699 30.7959 3.16699 30.0002V12.5252C3.16914 11.9269 3.33024 11.343 3.62961 10.8486C3.92897 10.3541 4.35292 9.97157 4.84699 9.75021L15.5137 4.95021C16.1472 4.66634 16.8534 4.66634 17.487 4.95021L28.1537 9.75021C28.6477 9.97157 29.0717 10.3541 29.371 10.8486C29.6704 11.343 29.8315 11.9269 29.8337 12.5252Z" stroke="#7A7A7A" stroke-width="2" stroke-linecap="round" stroke-linejoin="round"/>
<path d="M8.5 27H24.5" stroke="#7A7A7A" stroke-width="2" stroke-linecap="round" stroke-linejoin="round"/>
<path d="M8.5 21H24.5" stroke="#7A7A7A" stroke-width="2" stroke-linecap="round" stroke-linejoin="round"/>
<path d="M24.5 15H8.5V33H24.5V15Z" stroke="#7A7A7A" stroke-width="2" stroke-linecap="round" stroke-linejoin="round"/>
</svg>
