<svg width="20" height="20" viewBox="0 0 20 20" fill="none" xmlns="http://www.w3.org/2000/svg">
<path d="M15.0002 1.6665H5.00016C4.07969 1.6665 3.3335 2.4127 3.3335 3.33317V16.6665C3.3335 17.587 4.07969 18.3332 5.00016 18.3332H15.0002C15.9206 18.3332 16.6668 17.587 16.6668 16.6665V3.33317C16.6668 2.4127 15.9206 1.6665 15.0002 1.6665Z" stroke="#122B49" stroke-width="2" stroke-linecap="round" stroke-linejoin="round"/>
<path d="M7.5 18.3333V15H12.5V18.3333" stroke="#122B49" stroke-width="2" stroke-linecap="round" stroke-linejoin="round"/>
<path d="M6.6665 5H6.67484" stroke="#122B49" stroke-width="2" stroke-linecap="round" stroke-linejoin="round"/>
<path d="M13.3335 5H13.3418" stroke="#122B49" stroke-width="2" stroke-linecap="round" stroke-linejoin="round"/>
<path d="M10 5H10.0083" stroke="#122B49" stroke-width="2" stroke-linecap="round" stroke-linejoin="round"/>
<path d="M10 8.3335H10.0083" stroke="#122B49" stroke-width="2" stroke-linecap="round" stroke-linejoin="round"/>
<path d="M10 11.6665H10.0083" stroke="#122B49" stroke-width="2" stroke-linecap="round" stroke-linejoin="round"/>
<path d="M13.3335 8.3335H13.3418" stroke="#122B49" stroke-width="2" stroke-linecap="round" stroke-linejoin="round"/>
<path d="M13.3335 11.6665H13.3418" stroke="#122B49" stroke-width="2" stroke-linecap="round" stroke-linejoin="round"/>
<path d="M6.6665 8.3335H6.67484" stroke="#122B49" stroke-width="2" stroke-linecap="round" stroke-linejoin="round"/>
<path d="M6.6665 11.6665H6.67484" stroke="#122B49" stroke-width="2" stroke-linecap="round" stroke-linejoin="round"/>
</svg>
