<svg width="35" height="34" viewBox="0 0 35 34" fill="none" xmlns="http://www.w3.org/2000/svg">
<path d="M9.33301 26.9168V7.0835" stroke="#7A7A7A" stroke-width="2" stroke-linecap="round" stroke-linejoin="round"/>
<path d="M15 26.9166V9.6333" stroke="#7A7A7A" stroke-width="2" stroke-linecap="round" stroke-linejoin="round"/>
<path d="M20.666 26.9167V15.8667" stroke="#7A7A7A" stroke-width="2" stroke-linecap="round" stroke-linejoin="round"/>
<path d="M26.333 7.0835V12.7502" stroke="#7A7A7A" stroke-width="2" stroke-linecap="round" stroke-linejoin="round"/>
<path d="M26.333 26.9165V18.4165" stroke="#7A7A7A" stroke-width="2" stroke-linecap="round" stroke-linejoin="round"/>
<path d="M32 26.9167V12.75" stroke="#7A7A7A" stroke-width="2" stroke-linecap="round" stroke-linejoin="round"/>
<path d="M3.66602 26.9168V12.7502C3.66602 11.2473 4.26304 9.80593 5.32574 8.74322C6.38845 7.68052 7.82979 7.0835 9.33268 7.0835C12.166 7.0835 14.9993 8.96766 17.8327 12.7502C20.666 16.5327 23.4993 18.4168 26.3327 18.4168C27.279 18.4159 28.2101 18.1781 29.0409 17.7249C29.8717 17.2717 30.5757 16.6177 31.0888 15.8225C31.6019 15.0274 31.9077 14.1163 31.9783 13.1726C32.0488 12.2289 31.8819 11.2826 31.4927 10.4199C31.1036 9.55729 30.5046 8.80586 29.7504 8.2342C28.9962 7.66255 28.1109 7.28887 27.1752 7.14728C26.2395 7.00569 25.2832 7.1007 24.3937 7.42363C23.5041 7.74655 22.7096 8.28712 22.0827 8.996" stroke="#7A7A7A" stroke-width="2" stroke-linecap="round" stroke-linejoin="round"/>
</svg>
