<svg width="35" height="34" viewBox="0 0 35 34" fill="none" xmlns="http://www.w3.org/2000/svg">
<path d="M20.8996 20.4001L14.0996 13.6001" stroke="#7A7A7A" stroke-width="2" stroke-linecap="round" stroke-linejoin="round"/>
<path d="M26.9308 30.4371C26.3995 30.9686 25.6789 31.2673 24.9274 31.2674C24.176 31.2675 23.4552 30.9691 22.9238 30.4379C22.3923 29.9066 22.0937 29.1859 22.0935 28.4345C22.0934 27.683 22.3918 26.9623 22.9231 26.4308L20.4198 28.9355C19.8884 29.4669 19.1675 29.7655 18.4159 29.7655C17.6643 29.7655 16.9435 29.4669 16.4121 28.9355C15.8806 28.404 15.582 27.6832 15.582 26.9316C15.582 26.18 15.8806 25.4592 16.4121 24.9277L25.4277 15.9121C25.9592 15.3806 26.68 15.082 27.4316 15.082C28.1832 15.082 28.904 15.3806 29.4355 15.9121C29.9669 16.4435 30.2655 17.1643 30.2655 17.9159C30.2655 18.6675 29.9669 19.3884 29.4355 19.9198L26.9308 22.4231C27.4623 21.8918 28.183 21.5934 28.9345 21.5935C29.6859 21.5937 30.4066 21.8923 30.9379 22.4238C31.4691 22.9552 31.7675 23.676 31.7674 24.4274C31.7673 25.1789 31.4686 25.8995 30.9371 26.4308L26.9308 30.4371Z" stroke="#7A7A7A" stroke-width="2" stroke-linecap="round" stroke-linejoin="round"/>
<path d="M30.9579 30.4584L28.9746 28.4751" stroke="#7A7A7A" stroke-width="2" stroke-linecap="round" stroke-linejoin="round"/>
<path d="M6.02533 5.52484L4.04199 3.5415" stroke="#7A7A7A" stroke-width="2" stroke-linecap="round" stroke-linejoin="round"/>
<path d="M9.57208 18.0882C9.04062 18.6197 8.3198 18.9183 7.5682 18.9183C6.8166 18.9183 6.09579 18.6197 5.56433 18.0882C5.03287 17.5568 4.7343 16.836 4.7343 16.0844C4.7343 15.3328 5.03287 14.6119 5.56433 14.0805L8.06899 11.5772C7.80584 11.8403 7.49345 12.0489 7.14966 12.1913C6.80587 12.3336 6.43742 12.4068 6.06533 12.4068C5.31386 12.4066 4.59323 12.108 4.06195 11.5765C3.79889 11.3134 3.59024 11.001 3.44791 10.6572C3.30558 10.3134 3.23236 9.94495 3.23242 9.57286C3.23255 8.82139 3.5312 8.10076 4.06266 7.56948L8.06899 3.56315C8.60027 3.03169 9.3209 2.73304 10.0724 2.73291C10.4445 2.73284 10.8129 2.80607 11.1567 2.9484C11.5005 3.09073 11.8129 3.29938 12.076 3.56244C12.3392 3.8255 12.548 4.13782 12.6904 4.48156C12.8329 4.8253 12.9062 5.19373 12.9063 5.56582C12.9063 5.9379 12.8331 6.30636 12.6908 6.65015C12.5485 6.99394 12.3398 7.30633 12.0767 7.56948L14.58 5.06482C15.1115 4.53336 15.8323 4.23478 16.5839 4.23478C17.3355 4.23478 18.0563 4.53336 18.5877 5.06482C19.1192 5.59628 19.4178 6.31709 19.4178 7.06869C19.4178 7.82029 19.1192 8.54111 18.5877 9.07257L9.57208 18.0882Z" stroke="#7A7A7A" stroke-width="2" stroke-linecap="round" stroke-linejoin="round"/>
</svg>
