<svg width="20" height="20" viewBox="0 0 20 20" fill="none" xmlns="http://www.w3.org/2000/svg">
<g clip-path="url(#clip0_17_4946)">
<path d="M10.8333 4.99984C9.91286 4.99984 9.16667 4.25365 9.16667 3.33317C9.16667 2.4127 9.91286 1.6665 10.8333 1.6665C11.7538 1.6665 12.5 2.4127 12.5 3.33317C12.5 4.25365 11.7538 4.99984 10.8333 4.99984Z" stroke="#122B49" stroke-width="2" stroke-linecap="round" stroke-linejoin="round"/>
<path d="M4.99984 8.33333C4.07936 8.33333 3.33317 7.58714 3.33317 6.66667C3.33317 5.74619 4.07936 5 4.99984 5C5.92031 5 6.6665 5.74619 6.6665 6.66667C6.6665 7.58714 5.92031 8.33333 4.99984 8.33333Z" stroke="#122B49" stroke-width="2" stroke-linecap="round" stroke-linejoin="round"/>
<path d="M3.33333 14.9998C2.41286 14.9998 1.66667 14.2536 1.66667 13.3332C1.66667 12.4127 2.41286 11.6665 3.33333 11.6665C4.25381 11.6665 5 12.4127 5 13.3332C5 14.2536 4.25381 14.9998 3.33333 14.9998Z" stroke="#122B49" stroke-width="2" stroke-linecap="round" stroke-linejoin="round"/>
<path d="M12.4999 8.3335C11.9527 8.3335 11.4109 8.44127 10.9054 8.65066C10.3998 8.86006 9.94052 9.16697 9.5536 9.55388C9.16669 9.9408 8.85978 10.4001 8.65038 10.9056C8.44099 11.4112 8.33322 11.953 8.33322 12.5002V15.4168C8.33344 16.1139 8.5833 16.7878 9.03753 17.3165C9.49177 17.8453 10.1203 18.1938 10.8094 18.2991C11.4984 18.4044 12.2024 18.2594 12.7938 17.8904C13.3852 17.5214 13.8249 16.9528 14.0332 16.2877C14.3888 15.1404 15.1388 14.3891 16.2832 14.0335C16.9481 13.8253 17.5164 13.3859 17.8854 12.795C18.2544 12.204 18.3997 11.5005 18.295 10.8117C18.1903 10.1229 17.8424 9.49441 17.3145 9.03984C16.7865 8.58528 16.1132 8.33471 15.4166 8.3335H12.4999Z" stroke="#122B49" stroke-width="2" stroke-linecap="round" stroke-linejoin="round"/>
</g>
<defs>
<clipPath id="clip0_17_4946">
<rect width="20" height="20" fill="white" transform="matrix(-1 0 0 1 20 0)"/>
</clipPath>
</defs>
</svg>
