<svg width="35" height="34" viewBox="0 0 35 34" fill="none" xmlns="http://www.w3.org/2000/svg">
<path d="M12.5418 20.5417C13.4811 20.5417 14.382 20.1685 15.0462 19.5043C15.7104 18.8401 16.0835 17.9393 16.0835 17C16.0835 15.045 15.3752 14.1667 14.6668 12.75C13.1482 9.71408 14.3495 7.00683 17.5002 4.25C18.2085 7.79167 20.3335 11.1917 23.1668 13.4583C26.0002 15.725 27.4168 18.4167 27.4168 21.25C27.4168 22.5523 27.1603 23.8418 26.662 25.0449C26.1636 26.2481 25.4332 27.3413 24.5123 28.2621C23.5915 29.183 22.4983 29.9134 21.2951 30.4118C20.092 30.9102 18.8024 31.1667 17.5002 31.1667C16.1979 31.1667 14.9084 30.9102 13.7052 30.4118C12.5021 29.9134 11.4089 29.183 10.488 28.2621C9.56717 27.3413 8.83672 26.2481 8.33836 25.0449C7.84 23.8418 7.5835 22.5523 7.5835 21.25C7.5835 19.6166 8.19691 18.0002 9.00016 17C9.00016 17.9393 9.3733 18.8401 10.0375 19.5043C10.7017 20.1685 11.6025 20.5417 12.5418 20.5417Z" stroke="#7A7A7A" stroke-width="2" stroke-linecap="round" stroke-linejoin="round"/>
</svg>
